<svg width="119" height="119" viewBox="0 0 119 119" fill="none" xmlns="http://www.w3.org/2000/svg">
<path fill-rule="evenodd" clip-rule="evenodd" d="M56.1522 0.50897C60.672 0.244783 62.9324 5.88117 59.4825 8.81332C51.4844 15.6108 46.7917 25.5367 46.7917 36.2364C46.7917 56.1031 62.8969 72.2083 82.7636 72.2083C93.4633 72.2083 103.389 67.5155 110.187 59.5173C113.116 56.0709 118.747 58.3229 118.492 62.8388C116.73 94.0012 90.8928 118.5 59.544 118.5C26.9349 118.5 0.5 92.0651 0.5 59.456C0.5 28.2917 24.7201 2.5461 55.6664 0.537424L55.6968 0.535507L56.1522 0.50897ZM44.1896 12.2662L43.5834 12.467C23.9554 19.1266 9.93525 37.7242 9.93525 59.456C9.93525 86.8542 32.1458 109.065 59.544 109.065C81.4043 109.065 100.077 94.8836 106.64 75.0964L106.732 74.8113L106.716 74.8217C99.76 79.1459 91.6595 81.5672 83.1682 81.6416L82.7636 81.6436C57.6859 81.6436 37.3564 61.3141 37.3564 36.2364C37.3564 27.598 39.7854 19.3503 44.1783 12.2846L44.1896 12.2662Z" fill="black"/>
</svg>
