<svg width="28" height="28" viewBox="0 0 28 28" fill="none" xmlns="http://www.w3.org/2000/svg">
<g clip-path="url(#clip0_125_7467)">
<path d="M5 0.273035L5 23.727C5 23.8787 5.12035 24 5.26744 24L7.27326 24C7.42035 24 7.5407 23.8787 7.5407 23.727L7.5407 0.273035C7.5407 0.121351 7.42035 3.7089e-06 7.27325 3.71533e-06L5.26744 3.80301e-06C5.12035 3.80944e-06 5 0.121351 5 0.273035ZM11.2515 11.7876C11.2195 11.8129 11.1936 11.8451 11.1759 11.8819C11.1581 11.9187 11.1488 11.9591 11.1488 12C11.1488 12.0409 11.1581 12.0813 11.1759 12.1181C11.1936 12.1549 11.2195 12.1871 11.2515 12.2124L15.9885 15.9876C16.0279 16.0188 16.0752 16.0381 16.125 16.0434C16.1748 16.0487 16.2251 16.0397 16.2701 16.0176C16.315 15.9954 16.3529 15.9609 16.3794 15.9181C16.4059 15.8753 16.4199 15.8258 16.4198 15.7753L16.4198 13.2843L27.7326 13.2843C27.8797 13.2843 28 13.1629 28 13.0146L28 10.9921C28 10.8438 27.8797 10.7225 27.7326 10.7225L16.4231 10.7225L16.4231 8.22472C16.4231 7.99888 16.1657 7.87416 15.9919 8.01236L11.2515 11.7876Z" fill="#4E5C6E"/>
</g>
<defs>
<clipPath id="clip0_125_7467">
<rect width="28" height="28" fill="white" transform="translate(0 28) rotate(-90)"/>
</clipPath>
</defs>
</svg>
