<svg width="97" height="123" viewBox="0 0 97 123" fill="none" xmlns="http://www.w3.org/2000/svg">
<path d="M92.5909 0H4.40909C1.97031 0 0 1.96306 0 4.39286V118.607C0 121.037 1.97031 123 4.40909 123H92.5909C95.0297 123 97 121.037 97 118.607V4.39286C97 1.96306 95.0297 0 92.5909 0ZM56.767 9.88393H69.9943V38.6983L63.5874 34.0446L56.767 38.9042V9.88393ZM87.0795 113.116H9.92045V9.88393H48.5V50.6414C48.5 51.0944 48.6378 51.5474 48.9134 51.9181C49.0806 52.1537 49.2931 52.3539 49.5386 52.5071C49.784 52.6604 50.0575 52.7636 50.3433 52.8108C50.629 52.858 50.9213 52.8484 51.2033 52.7823C51.4852 52.7163 51.7513 52.5951 51.9859 52.426L63.5322 44.2031L74.7479 52.3574C75.1199 52.6319 75.5746 52.7829 76.043 52.7829C77.2555 52.7829 78.2476 51.7945 78.2476 50.5865V9.88393H87.0658V113.116H87.0795Z" fill="black"/>
</svg>
