<svg width="64" height="70" viewBox="0 0 64 70" fill="none" xmlns="http://www.w3.org/2000/svg">
<g clip-path="url(#clip0_6_116)">
<path opacity="0.7" d="M28.3735 27.6862C27.667 27.6862 27.0962 28.263 27.0962 28.9768V30.4641C27.0962 30.4663 27.0984 30.4685 27.1006 30.4685H42.288C42.2902 30.4685 42.2924 30.4663 42.2924 30.4641V28.9768C42.2924 28.263 41.7216 27.6862 41.0151 27.6862H36.0744C36.0722 27.6862 36.07 27.684 36.07 27.6818V18.3182C36.07 17.6796 35.6129 17.1116 34.983 17.0387C34.3444 16.9658 33.7866 17.3702 33.6139 17.9425L28.9028 19.7613C28.9006 19.7635 28.9006 19.768 28.9028 19.768L33.557 21.4785C33.5592 21.4785 33.5592 21.4807 33.5592 21.4829V27.6818C33.5592 27.684 33.557 27.6862 33.5548 27.6862H28.3735Z" fill="black"/>
<path opacity="0.7" d="M50.1771 50.7004C48.6811 52.212 47.0255 53.4584 45.2626 54.4418C45.2604 54.444 45.2582 54.4418 45.2582 54.4396V34.5854C45.2582 34.5832 45.2604 34.581 45.2626 34.581C46.1287 34.5788 46.8221 33.8318 46.7455 32.939C46.6777 32.1523 45.9909 31.5666 45.2123 31.5666H24.0736C23.2928 31.5666 22.6083 32.1523 22.5405 32.939C22.4639 33.8318 23.1572 34.5788 24.0233 34.581C24.0255 34.581 24.0277 34.5832 24.0277 34.5854V54.4374C24.0277 54.4396 24.0255 54.4418 24.0233 54.4396C22.2605 53.4562 20.6048 52.2097 19.1088 50.6981C10.5265 42.0263 10.5265 27.9689 19.1088 19.297C27.6912 10.6252 41.6035 10.6252 50.1859 19.297C52.1193 21.2506 53.6131 23.476 54.6761 25.8517C54.6761 25.8539 54.6804 25.8539 54.6826 25.8517L64.0108 16.4263C64.0129 16.4241 64.0129 16.4241 64.0108 16.4219C58.0268 6.80421 47.5504 0.326867 35.5539 0.0108445C15.6728 -0.510702 -0.65194 16.1191 0.0195112 36.2031C0.647219 54.9766 15.9069 69.9998 34.6375 69.9998C47.0145 69.9998 57.8737 63.4385 63.9998 53.5733C63.9998 53.5711 63.9998 53.5711 63.9998 53.5689L54.6717 44.1434C54.6695 44.1412 54.6673 44.1412 54.6651 44.1434C53.6044 46.5213 52.1084 48.7468 50.1771 50.7004ZM30.1145 54.6827C30.1145 54.9147 29.9286 55.1003 29.7011 55.1003H27.5731C27.3434 55.1003 27.1597 54.9125 27.1597 54.6827V52.5324C27.1597 52.3004 27.3456 52.1147 27.5731 52.1147H29.7011C29.9308 52.1147 30.1145 52.3026 30.1145 52.5324V54.6827ZM30.1145 49.0208C30.1145 49.2528 29.9286 49.4385 29.7011 49.4385H27.5731C27.3434 49.4385 27.1597 49.2506 27.1597 49.0208V46.8705C27.1597 46.6385 27.3456 46.4528 27.5731 46.4528H29.7011C29.9308 46.4528 30.1145 46.6407 30.1145 46.8705V49.0208ZM30.1145 43.3589C30.1145 43.591 29.9286 43.7766 29.7011 43.7766H27.5731C27.3434 43.7766 27.1597 43.5887 27.1597 43.3589V41.2086C27.1597 40.9766 27.3456 40.791 27.5731 40.791H29.7011C29.9308 40.791 30.1145 40.9788 30.1145 41.2086V43.3589ZM30.1145 37.8694C30.1145 38.1015 29.9286 38.2871 29.7011 38.2871H27.5731C27.3434 38.2871 27.1597 38.0992 27.1597 37.8694V35.7191C27.1597 35.4871 27.3456 35.3015 27.5731 35.3015H29.7011C29.9308 35.3015 30.1145 35.4893 30.1145 35.7191V37.8694ZM36.4769 62.2031H33.5286C33.5264 62.2031 33.5243 62.2009 33.5243 62.1987V59.1733C33.5243 58.391 34.0973 57.7059 34.8693 57.6374C35.7442 57.56 36.4791 58.2561 36.4791 59.1247V62.1987C36.4813 62.2009 36.4791 62.2031 36.4769 62.2031ZM36.4813 54.6827C36.4813 54.9147 36.2954 55.1003 36.0679 55.1003H33.9398C33.7102 55.1003 33.5264 54.9125 33.5264 54.6827V52.5324C33.5264 52.3004 33.7124 52.1147 33.9398 52.1147H36.0679C36.2976 52.1147 36.4813 52.3026 36.4813 52.5324V54.6827ZM36.4813 49.0208C36.4813 49.2528 36.2954 49.4385 36.0679 49.4385H33.9398C33.7102 49.4385 33.5264 49.2506 33.5264 49.0208V46.8705C33.5264 46.6385 33.7124 46.4528 33.9398 46.4528H36.0679C36.2976 46.4528 36.4813 46.6407 36.4813 46.8705V49.0208ZM36.4813 43.3589C36.4813 43.591 36.2954 43.7766 36.0679 43.7766H33.9398C33.7102 43.7766 33.5264 43.5887 33.5264 43.3589V41.2086C33.5264 40.9766 33.7124 40.791 33.9398 40.791H36.0679C36.2976 40.791 36.4813 40.9788 36.4813 41.2086V43.3589ZM36.4813 37.8694C36.4813 38.1015 36.2954 38.2871 36.0679 38.2871H33.9398C33.7102 38.2871 33.5264 38.0992 33.5264 37.8694V35.7191C33.5264 35.4871 33.7124 35.3015 33.9398 35.3015H36.0679C36.2976 35.3015 36.4813 35.4893 36.4813 35.7191V37.8694ZM42.3559 54.6827C42.3559 54.9147 42.17 55.1003 41.9426 55.1003H39.8145C39.5848 55.1003 39.4011 54.9125 39.4011 54.6827V52.5324C39.4011 52.3004 39.587 52.1147 39.8145 52.1147H41.9426C42.1722 52.1147 42.3559 52.3026 42.3559 52.5324V54.6827ZM42.3559 49.0208C42.3559 49.2528 42.17 49.4385 41.9426 49.4385H39.8145C39.5848 49.4385 39.4011 49.2506 39.4011 49.0208V46.8705C39.4011 46.6385 39.587 46.4528 39.8145 46.4528H41.9426C42.1722 46.4528 42.3559 46.6407 42.3559 46.8705V49.0208ZM42.3559 43.3589C42.3559 43.591 42.17 43.7766 41.9426 43.7766H39.8145C39.5848 43.7766 39.4011 43.5887 39.4011 43.3589V41.2086C39.4011 40.9766 39.587 40.791 39.8145 40.791H41.9426C42.1722 40.791 42.3559 40.9788 42.3559 41.2086V43.3589ZM42.3559 37.8694C42.3559 38.1015 42.17 38.2871 41.9426 38.2871H39.8145C39.587 38.2871 39.4011 38.0992 39.4011 37.8694V35.7191C39.4011 35.4871 39.587 35.3015 39.8145 35.3015H41.9426C42.1722 35.3015 42.3559 35.4893 42.3559 35.7191V37.8694Z" fill="black"/>
<path opacity="0.7" d="M28.3735 27.6862C27.667 27.6862 27.0962 28.263 27.0962 28.9768V30.4641C27.0962 30.4663 27.0984 30.4685 27.1006 30.4685H42.288C42.2902 30.4685 42.2924 30.4663 42.2924 30.4641V28.9768C42.2924 28.263 41.7216 27.6862 41.0151 27.6862H36.0744C36.0722 27.6862 36.07 27.684 36.07 27.6818V18.3182C36.07 17.6796 35.6129 17.1116 34.983 17.0387C34.3444 16.9658 33.7866 17.3702 33.6139 17.9425L28.9028 19.7613C28.9006 19.7635 28.9006 19.768 28.9028 19.768L33.557 21.4785C33.5592 21.4785 33.5592 21.4807 33.5592 21.4829V27.6818C33.5592 27.684 33.557 27.6862 33.5548 27.6862H28.3735Z" fill="#02152F"/>
<path opacity="0.7" d="M50.1771 50.7004C48.6811 52.212 47.0255 53.4584 45.2626 54.4418C45.2604 54.444 45.2582 54.4418 45.2582 54.4396V34.5854C45.2582 34.5832 45.2604 34.581 45.2626 34.581C46.1287 34.5788 46.8221 33.8318 46.7455 32.939C46.6777 32.1523 45.9909 31.5666 45.2123 31.5666H24.0736C23.2928 31.5666 22.6083 32.1523 22.5405 32.939C22.4639 33.8318 23.1572 34.5788 24.0233 34.581C24.0255 34.581 24.0277 34.5832 24.0277 34.5854V54.4374C24.0277 54.4396 24.0255 54.4418 24.0233 54.4396C22.2605 53.4562 20.6048 52.2097 19.1088 50.6981C10.5265 42.0263 10.5265 27.9689 19.1088 19.297C27.6912 10.6252 41.6035 10.6252 50.1859 19.297C52.1193 21.2506 53.6131 23.476 54.6761 25.8517C54.6761 25.8539 54.6804 25.8539 54.6826 25.8517L64.0108 16.4263C64.0129 16.4241 64.0129 16.4241 64.0108 16.4219C58.0268 6.80421 47.5504 0.326867 35.5539 0.0108445C15.6728 -0.510702 -0.65194 16.1191 0.0195112 36.2031C0.647219 54.9766 15.9069 69.9998 34.6375 69.9998C47.0145 69.9998 57.8737 63.4385 63.9998 53.5733C63.9998 53.5711 63.9998 53.5711 63.9998 53.5689L54.6717 44.1434C54.6695 44.1412 54.6673 44.1412 54.6651 44.1434C53.6044 46.5213 52.1084 48.7468 50.1771 50.7004ZM30.1145 54.6827C30.1145 54.9147 29.9286 55.1003 29.7011 55.1003H27.5731C27.3434 55.1003 27.1597 54.9125 27.1597 54.6827V52.5324C27.1597 52.3004 27.3456 52.1147 27.5731 52.1147H29.7011C29.9308 52.1147 30.1145 52.3026 30.1145 52.5324V54.6827ZM30.1145 49.0208C30.1145 49.2528 29.9286 49.4385 29.7011 49.4385H27.5731C27.3434 49.4385 27.1597 49.2506 27.1597 49.0208V46.8705C27.1597 46.6385 27.3456 46.4528 27.5731 46.4528H29.7011C29.9308 46.4528 30.1145 46.6407 30.1145 46.8705V49.0208ZM30.1145 43.3589C30.1145 43.591 29.9286 43.7766 29.7011 43.7766H27.5731C27.3434 43.7766 27.1597 43.5887 27.1597 43.3589V41.2086C27.1597 40.9766 27.3456 40.791 27.5731 40.791H29.7011C29.9308 40.791 30.1145 40.9788 30.1145 41.2086V43.3589ZM30.1145 37.8694C30.1145 38.1015 29.9286 38.2871 29.7011 38.2871H27.5731C27.3434 38.2871 27.1597 38.0992 27.1597 37.8694V35.7191C27.1597 35.4871 27.3456 35.3015 27.5731 35.3015H29.7011C29.9308 35.3015 30.1145 35.4893 30.1145 35.7191V37.8694ZM36.4769 62.2031H33.5286C33.5264 62.2031 33.5243 62.2009 33.5243 62.1987V59.1733C33.5243 58.391 34.0973 57.7059 34.8693 57.6374C35.7442 57.56 36.4791 58.2561 36.4791 59.1247V62.1987C36.4813 62.2009 36.4791 62.2031 36.4769 62.2031ZM36.4813 54.6827C36.4813 54.9147 36.2954 55.1003 36.0679 55.1003H33.9398C33.7102 55.1003 33.5264 54.9125 33.5264 54.6827V52.5324C33.5264 52.3004 33.7124 52.1147 33.9398 52.1147H36.0679C36.2976 52.1147 36.4813 52.3026 36.4813 52.5324V54.6827ZM36.4813 49.0208C36.4813 49.2528 36.2954 49.4385 36.0679 49.4385H33.9398C33.7102 49.4385 33.5264 49.2506 33.5264 49.0208V46.8705C33.5264 46.6385 33.7124 46.4528 33.9398 46.4528H36.0679C36.2976 46.4528 36.4813 46.6407 36.4813 46.8705V49.0208ZM36.4813 43.3589C36.4813 43.591 36.2954 43.7766 36.0679 43.7766H33.9398C33.7102 43.7766 33.5264 43.5887 33.5264 43.3589V41.2086C33.5264 40.9766 33.7124 40.791 33.9398 40.791H36.0679C36.2976 40.791 36.4813 40.9788 36.4813 41.2086V43.3589ZM36.4813 37.8694C36.4813 38.1015 36.2954 38.2871 36.0679 38.2871H33.9398C33.7102 38.2871 33.5264 38.0992 33.5264 37.8694V35.7191C33.5264 35.4871 33.7124 35.3015 33.9398 35.3015H36.0679C36.2976 35.3015 36.4813 35.4893 36.4813 35.7191V37.8694ZM42.3559 54.6827C42.3559 54.9147 42.17 55.1003 41.9426 55.1003H39.8145C39.5848 55.1003 39.4011 54.9125 39.4011 54.6827V52.5324C39.4011 52.3004 39.587 52.1147 39.8145 52.1147H41.9426C42.1722 52.1147 42.3559 52.3026 42.3559 52.5324V54.6827ZM42.3559 49.0208C42.3559 49.2528 42.17 49.4385 41.9426 49.4385H39.8145C39.5848 49.4385 39.4011 49.2506 39.4011 49.0208V46.8705C39.4011 46.6385 39.587 46.4528 39.8145 46.4528H41.9426C42.1722 46.4528 42.3559 46.6407 42.3559 46.8705V49.0208ZM42.3559 43.3589C42.3559 43.591 42.17 43.7766 41.9426 43.7766H39.8145C39.5848 43.7766 39.4011 43.5887 39.4011 43.3589V41.2086C39.4011 40.9766 39.587 40.791 39.8145 40.791H41.9426C42.1722 40.791 42.3559 40.9788 42.3559 41.2086V43.3589ZM42.3559 37.8694C42.3559 38.1015 42.17 38.2871 41.9426 38.2871H39.8145C39.587 38.2871 39.4011 38.0992 39.4011 37.8694V35.7191C39.4011 35.4871 39.587 35.3015 39.8145 35.3015H41.9426C42.1722 35.3015 42.3559 35.4893 42.3559 35.7191V37.8694Z" fill="#02152F"/>
</g>
<defs>
<clipPath id="clip0_6_116">
<rect width="64" height="70" fill="white"/>
</clipPath>
</defs>
</svg>
