<svg width="315" height="85" viewBox="0 0 315 85" fill="none" xmlns="http://www.w3.org/2000/svg">
<g clip-path="url(#clip0_136_8610)">
<path opacity="0.7" d="M34.5804 33.6189C33.7194 33.6189 33.0237 34.3193 33.0237 35.1861V36.9921C33.0237 36.9948 33.0263 36.9975 33.029 36.9975H51.5388C51.5414 36.9975 51.5441 36.9948 51.5441 36.9921V35.1861C51.5441 34.3193 50.8484 33.6189 49.9874 33.6189H43.9659C43.9632 33.6189 43.9605 33.6163 43.9605 33.6136V22.2436C43.9605 21.468 43.4034 20.7784 42.6357 20.6898C41.8574 20.6013 41.1777 21.0924 40.9671 21.7874L35.2254 23.9959C35.2228 23.9986 35.2228 24.004 35.2254 24.004L40.8978 26.081C40.9004 26.081 40.9005 26.0837 40.9005 26.0864V33.6136C40.9005 33.6163 40.8978 33.6189 40.8951 33.6189H34.5804Z" fill="black"/>
<path opacity="0.7" d="M61.1535 61.5647C59.3302 63.4002 57.3124 64.9137 55.1639 66.1079C55.1613 66.1106 55.1586 66.1079 55.1586 66.1052V41.9966C55.1586 41.9939 55.1613 41.9912 55.1639 41.9912C56.2195 41.9885 57.0645 41.0815 56.9712 39.9974C56.8886 39.042 56.0516 38.3309 55.1026 38.3309H29.3399C28.3882 38.3309 27.5539 39.042 27.4713 39.9974C27.378 41.0815 28.223 41.9885 29.2785 41.9912C29.2812 41.9912 29.2839 41.9939 29.2839 41.9966V66.1025C29.2839 66.1052 29.2812 66.1079 29.2785 66.1052C27.1301 64.911 25.1123 63.3975 23.289 61.562C12.8293 51.0319 12.8293 33.9622 23.289 23.4321C33.7487 12.902 50.7044 12.902 61.1641 23.4321C63.5205 25.8043 65.3411 28.5066 66.6366 31.3914C66.6366 31.3941 66.6419 31.3941 66.6446 31.3914L78.0132 19.9462C78.0159 19.9435 78.0159 19.9435 78.0132 19.9409C70.7202 8.26225 57.9521 0.396901 43.3314 0.0131596C19.1014 -0.620147 -0.794445 19.5732 0.0238861 43.9609C0.788906 66.7573 19.3866 84.9997 42.2146 84.9997C57.2991 84.9997 70.5336 77.0324 77.9999 65.0533C77.9999 65.0506 77.9999 65.0506 77.9999 65.0479L66.6312 53.6027C66.6286 53.6001 66.6259 53.6001 66.6232 53.6027C65.3304 56.4902 63.5072 59.1925 61.1535 61.5647ZM36.7022 66.4004C36.7022 66.6821 36.4756 66.9076 36.1984 66.9076H33.6048C33.3249 66.9076 33.101 66.6795 33.101 66.4004V63.7893C33.101 63.5076 33.3276 63.2821 33.6048 63.2821H36.1984C36.4783 63.2821 36.7022 63.5102 36.7022 63.7893V66.4004ZM36.7022 59.5252C36.7022 59.807 36.4756 60.0324 36.1984 60.0324H33.6048C33.3249 60.0324 33.101 59.8043 33.101 59.5252V56.9142C33.101 56.6324 33.3276 56.407 33.6048 56.407H36.1984C36.4783 56.407 36.7022 56.6351 36.7022 56.9142V59.5252ZM36.7022 52.6501C36.7022 52.9319 36.4756 53.1573 36.1984 53.1573H33.6048C33.3249 53.1573 33.101 52.9292 33.101 52.6501V50.0391C33.101 49.7573 33.3276 49.5319 33.6048 49.5319H36.1984C36.4783 49.5319 36.7022 49.76 36.7022 50.0391V52.6501ZM36.7022 45.9843C36.7022 46.266 36.4756 46.4915 36.1984 46.4915H33.6048C33.3249 46.4915 33.101 46.2634 33.101 45.9843V43.3732C33.101 43.0915 33.3276 42.866 33.6048 42.866H36.1984C36.4783 42.866 36.7022 43.0941 36.7022 43.3732V45.9843ZM44.4563 75.5323H40.8631C40.8605 75.5323 40.8578 75.5297 40.8578 75.527V71.8533C40.8578 70.9033 41.5562 70.0714 42.4971 69.9882C43.5634 69.8943 44.459 70.7396 44.459 71.7942V75.527C44.4617 75.5297 44.459 75.5323 44.4563 75.5323ZM44.4617 66.4004C44.4617 66.6821 44.2351 66.9076 43.9579 66.9076H41.3643C41.0844 66.9076 40.8605 66.6795 40.8605 66.4004V63.7893C40.8605 63.5076 41.087 63.2821 41.3643 63.2821H43.9579C44.2377 63.2821 44.4617 63.5102 44.4617 63.7893V66.4004ZM44.4617 59.5252C44.4617 59.807 44.2351 60.0324 43.9579 60.0324H41.3643C41.0844 60.0324 40.8605 59.8043 40.8605 59.5252V56.9142C40.8605 56.6324 41.087 56.407 41.3643 56.407H43.9579C44.2377 56.407 44.4617 56.6351 44.4617 56.9142V59.5252ZM44.4617 52.6501C44.4617 52.9319 44.2351 53.1573 43.9579 53.1573H41.3643C41.0844 53.1573 40.8605 52.9292 40.8605 52.6501V50.0391C40.8605 49.7573 41.087 49.5319 41.3643 49.5319H43.9579C44.2377 49.5319 44.4617 49.76 44.4617 50.0391V52.6501ZM44.4617 45.9843C44.4617 46.266 44.2351 46.4915 43.9579 46.4915H41.3643C41.0844 46.4915 40.8605 46.2634 40.8605 45.9843V43.3732C40.8605 43.0915 41.087 42.866 41.3643 42.866H43.9579C44.2377 42.866 44.4617 43.0941 44.4617 43.3732V45.9843ZM51.6214 66.4004C51.6214 66.6821 51.3948 66.9076 51.1176 66.9076H48.524C48.2441 66.9076 48.0202 66.6795 48.0202 66.4004V63.7893C48.0202 63.5076 48.2468 63.2821 48.524 63.2821H51.1176C51.3975 63.2821 51.6214 63.5102 51.6214 63.7893V66.4004ZM51.6214 59.5252C51.6214 59.807 51.3948 60.0324 51.1176 60.0324H48.524C48.2441 60.0324 48.0202 59.8043 48.0202 59.5252V56.9142C48.0202 56.6324 48.2468 56.407 48.524 56.407H51.1176C51.3975 56.407 51.6214 56.6351 51.6214 56.9142V59.5252ZM51.6214 52.6501C51.6214 52.9319 51.3948 53.1573 51.1176 53.1573H48.524C48.2441 53.1573 48.0202 52.9292 48.0202 52.6501V50.0391C48.0202 49.7573 48.2468 49.5319 48.524 49.5319H51.1176C51.3975 49.5319 51.6214 49.76 51.6214 50.0391V52.6501ZM51.6214 45.9843C51.6214 46.266 51.3948 46.4915 51.1176 46.4915H48.524C48.2468 46.4915 48.0202 46.2634 48.0202 45.9843V43.3732C48.0202 43.0915 48.2468 42.866 48.524 42.866H51.1176C51.3975 42.866 51.6214 43.0941 51.6214 43.3732V45.9843Z" fill="black"/>
<path opacity="0.7" d="M34.5804 33.6189C33.7194 33.6189 33.0237 34.3193 33.0237 35.1861V36.9921C33.0237 36.9948 33.0263 36.9975 33.029 36.9975H51.5388C51.5414 36.9975 51.5441 36.9948 51.5441 36.9921V35.1861C51.5441 34.3193 50.8484 33.6189 49.9874 33.6189H43.9659C43.9632 33.6189 43.9605 33.6163 43.9605 33.6136V22.2436C43.9605 21.468 43.4034 20.7784 42.6357 20.6898C41.8574 20.6013 41.1777 21.0924 40.9671 21.7874L35.2254 23.9959C35.2228 23.9986 35.2228 24.004 35.2254 24.004L40.8978 26.081C40.9004 26.081 40.9005 26.0837 40.9005 26.0864V33.6136C40.9005 33.6163 40.8978 33.6189 40.8951 33.6189H34.5804Z" fill="#02152F"/>
<path opacity="0.7" d="M61.1535 61.5647C59.3302 63.4002 57.3124 64.9137 55.1639 66.1079C55.1613 66.1106 55.1586 66.1079 55.1586 66.1052V41.9966C55.1586 41.9939 55.1613 41.9912 55.1639 41.9912C56.2195 41.9885 57.0645 41.0815 56.9712 39.9974C56.8886 39.042 56.0516 38.3309 55.1026 38.3309H29.3399C28.3882 38.3309 27.5539 39.042 27.4713 39.9974C27.378 41.0815 28.223 41.9885 29.2785 41.9912C29.2812 41.9912 29.2839 41.9939 29.2839 41.9966V66.1025C29.2839 66.1052 29.2812 66.1079 29.2785 66.1052C27.1301 64.911 25.1123 63.3975 23.289 61.562C12.8293 51.0319 12.8293 33.9622 23.289 23.4321C33.7487 12.902 50.7044 12.902 61.1641 23.4321C63.5205 25.8043 65.3411 28.5066 66.6366 31.3914C66.6366 31.3941 66.6419 31.3941 66.6446 31.3914L78.0132 19.9462C78.0159 19.9435 78.0159 19.9435 78.0132 19.9409C70.7202 8.26225 57.9521 0.396901 43.3314 0.0131596C19.1014 -0.620147 -0.794445 19.5732 0.0238861 43.9609C0.788906 66.7573 19.3866 84.9997 42.2146 84.9997C57.2991 84.9997 70.5336 77.0324 77.9999 65.0533C77.9999 65.0506 77.9999 65.0506 77.9999 65.0479L66.6312 53.6027C66.6286 53.6001 66.6259 53.6001 66.6232 53.6027C65.3304 56.4902 63.5072 59.1925 61.1535 61.5647ZM36.7022 66.4004C36.7022 66.6821 36.4756 66.9076 36.1984 66.9076H33.6048C33.3249 66.9076 33.101 66.6795 33.101 66.4004V63.7893C33.101 63.5076 33.3276 63.2821 33.6048 63.2821H36.1984C36.4783 63.2821 36.7022 63.5102 36.7022 63.7893V66.4004ZM36.7022 59.5252C36.7022 59.807 36.4756 60.0324 36.1984 60.0324H33.6048C33.3249 60.0324 33.101 59.8043 33.101 59.5252V56.9142C33.101 56.6324 33.3276 56.407 33.6048 56.407H36.1984C36.4783 56.407 36.7022 56.6351 36.7022 56.9142V59.5252ZM36.7022 52.6501C36.7022 52.9319 36.4756 53.1573 36.1984 53.1573H33.6048C33.3249 53.1573 33.101 52.9292 33.101 52.6501V50.0391C33.101 49.7573 33.3276 49.5319 33.6048 49.5319H36.1984C36.4783 49.5319 36.7022 49.76 36.7022 50.0391V52.6501ZM36.7022 45.9843C36.7022 46.266 36.4756 46.4915 36.1984 46.4915H33.6048C33.3249 46.4915 33.101 46.2634 33.101 45.9843V43.3732C33.101 43.0915 33.3276 42.866 33.6048 42.866H36.1984C36.4783 42.866 36.7022 43.0941 36.7022 43.3732V45.9843ZM44.4563 75.5323H40.8631C40.8605 75.5323 40.8578 75.5297 40.8578 75.527V71.8533C40.8578 70.9033 41.5562 70.0714 42.4971 69.9882C43.5634 69.8943 44.459 70.7396 44.459 71.7942V75.527C44.4617 75.5297 44.459 75.5323 44.4563 75.5323ZM44.4617 66.4004C44.4617 66.6821 44.2351 66.9076 43.9579 66.9076H41.3643C41.0844 66.9076 40.8605 66.6795 40.8605 66.4004V63.7893C40.8605 63.5076 41.087 63.2821 41.3643 63.2821H43.9579C44.2377 63.2821 44.4617 63.5102 44.4617 63.7893V66.4004ZM44.4617 59.5252C44.4617 59.807 44.2351 60.0324 43.9579 60.0324H41.3643C41.0844 60.0324 40.8605 59.8043 40.8605 59.5252V56.9142C40.8605 56.6324 41.087 56.407 41.3643 56.407H43.9579C44.2377 56.407 44.4617 56.6351 44.4617 56.9142V59.5252ZM44.4617 52.6501C44.4617 52.9319 44.2351 53.1573 43.9579 53.1573H41.3643C41.0844 53.1573 40.8605 52.9292 40.8605 52.6501V50.0391C40.8605 49.7573 41.087 49.5319 41.3643 49.5319H43.9579C44.2377 49.5319 44.4617 49.76 44.4617 50.0391V52.6501ZM44.4617 45.9843C44.4617 46.266 44.2351 46.4915 43.9579 46.4915H41.3643C41.0844 46.4915 40.8605 46.2634 40.8605 45.9843V43.3732C40.8605 43.0915 41.087 42.866 41.3643 42.866H43.9579C44.2377 42.866 44.4617 43.0941 44.4617 43.3732V45.9843ZM51.6214 66.4004C51.6214 66.6821 51.3948 66.9076 51.1176 66.9076H48.524C48.2441 66.9076 48.0202 66.6795 48.0202 66.4004V63.7893C48.0202 63.5076 48.2468 63.2821 48.524 63.2821H51.1176C51.3975 63.2821 51.6214 63.5102 51.6214 63.7893V66.4004ZM51.6214 59.5252C51.6214 59.807 51.3948 60.0324 51.1176 60.0324H48.524C48.2441 60.0324 48.0202 59.8043 48.0202 59.5252V56.9142C48.0202 56.6324 48.2468 56.407 48.524 56.407H51.1176C51.3975 56.407 51.6214 56.6351 51.6214 56.9142V59.5252ZM51.6214 52.6501C51.6214 52.9319 51.3948 53.1573 51.1176 53.1573H48.524C48.2441 53.1573 48.0202 52.9292 48.0202 52.6501V50.0391C48.0202 49.7573 48.2468 49.5319 48.524 49.5319H51.1176C51.3975 49.5319 51.6214 49.76 51.6214 50.0391V52.6501ZM51.6214 45.9843C51.6214 46.266 51.3948 46.4915 51.1176 46.4915H48.524C48.2468 46.4915 48.0202 46.2634 48.0202 45.9843V43.3732C48.0202 43.0915 48.2468 42.866 48.524 42.866H51.1176C51.3975 42.866 51.6214 43.0941 51.6214 43.3732V45.9843Z" fill="#02152F"/>
</g>
<path d="M95.554 42.1818C95.554 45.2585 94.9557 47.8539 93.7592 49.968C92.5627 52.0732 90.9479 53.67 88.9148 54.7585C86.8816 55.8381 84.6146 56.3778 82.1136 56.3778C79.5947 56.3778 77.3187 55.8336 75.2855 54.745C73.2614 53.6475 71.651 52.0462 70.4545 49.9411C69.267 47.8269 68.6733 45.2405 68.6733 42.1818C68.6733 39.1051 69.267 36.5142 70.4545 34.4091C71.651 32.295 73.2614 30.6982 75.2855 29.6186C77.3187 28.5301 79.5947 27.9858 82.1136 27.9858C84.6146 27.9858 86.8816 28.5301 88.9148 29.6186C90.9479 30.6982 92.5627 32.295 93.7592 34.4091C94.9557 36.5142 95.554 39.1051 95.554 42.1818ZM87.8352 42.1818C87.8352 40.5265 87.6148 39.1321 87.174 37.9986C86.7422 36.8561 86.099 35.9924 85.2443 35.4077C84.3987 34.8139 83.3551 34.517 82.1136 34.517C80.8722 34.517 79.8241 34.8139 78.9695 35.4077C78.1238 35.9924 77.4806 36.8561 77.0398 37.9986C76.608 39.1321 76.392 40.5265 76.392 42.1818C76.392 43.8371 76.608 45.236 77.0398 46.3786C77.4806 47.5121 78.1238 48.3757 78.9695 48.9695C79.8241 49.5542 80.8722 49.8466 82.1136 49.8466C83.3551 49.8466 84.3987 49.5542 85.2443 48.9695C86.099 48.3757 86.7422 47.5121 87.174 46.3786C87.6148 45.236 87.8352 43.8371 87.8352 42.1818ZM122.937 28.3636V56H116.676L106.69 41.4801H106.528V56H99.0254V28.3636H105.395L115.219 42.8295H115.434V28.3636H122.937ZM125.731 34.4091V28.3636H149.751V34.4091H141.438V56H134.043V34.4091H125.731ZM160.077 28.3636V56H152.574V28.3636H160.077ZM187.545 28.3636V56H181.283L171.298 41.4801H171.136V56H163.633V28.3636H170.002L179.826 42.8295H180.042V28.3636H187.545ZM191.094 56V28.3636H211.011V34.4091H198.597V39.1591H209.986V45.2045H198.597V49.9545H210.957V56H191.094ZM238.644 28.3636V56H232.383L222.397 41.4801H222.235V56H214.732V28.3636H221.102L230.926 42.8295H231.142V28.3636H238.644ZM241.438 34.4091V28.3636H265.458V34.4091H257.145V56H249.75V34.4091H241.438ZM271.972 56H263.875L272.998 28.3636H283.253L292.375 56H284.279L278.233 35.9744H278.017L271.972 56ZM270.461 45.0966H285.682V50.7102H270.461V45.0966ZM295.037 56V28.3636H302.54V49.9545H313.713V56H295.037Z" fill="black"/>
<defs>
<clipPath id="clip0_136_8610">
<rect width="78" height="85" fill="white"/>
</clipPath>
</defs>
</svg>
