<svg width="32" height="35" viewBox="0 0 32 35" fill="none" xmlns="http://www.w3.org/2000/svg">
<path opacity="0.7" d="M14.1867 13.8431C13.8335 13.8431 13.5481 14.1315 13.5481 14.4884V15.232C13.5481 15.2331 13.5492 15.2342 13.5503 15.2342H21.144C21.1451 15.2342 21.1462 15.2331 21.1462 15.232V14.4884C21.1462 14.1315 20.8608 13.8431 20.5076 13.8431H18.0372C18.0361 13.8431 18.035 13.842 18.035 13.8409V9.1591C18.035 8.83977 17.8065 8.55579 17.4915 8.51933C17.1722 8.48286 16.8933 8.68507 16.8069 8.97126L14.4514 9.88065C14.4503 9.88176 14.4503 9.88397 14.4514 9.88397L16.7785 10.7392C16.7796 10.7392 16.7796 10.7403 16.7796 10.7414V13.8409C16.7796 13.842 16.7785 13.8431 16.7774 13.8431H14.1867Z" fill="#02152F"/>
<path opacity="0.7" d="M25.0886 25.3501C24.3406 26.1059 23.5127 26.7291 22.6313 27.2208C22.6302 27.2219 22.6291 27.2208 22.6291 27.2197V17.2927C22.6291 17.2915 22.6302 17.2904 22.6313 17.2904C23.0644 17.2893 23.411 16.9159 23.3728 16.4695C23.3389 16.0761 22.9955 15.7833 22.6062 15.7833H12.0368C11.6464 15.7833 11.3041 16.0761 11.2702 16.4695C11.232 16.9159 11.5786 17.2893 12.0117 17.2904C12.0128 17.2904 12.0139 17.2915 12.0139 17.2927V27.2186C12.0139 27.2197 12.0128 27.2208 12.0117 27.2197C11.1303 26.728 10.3024 26.1048 9.55442 25.349C5.26326 21.0131 5.26326 13.9844 9.55442 9.64846C13.8456 5.31254 20.8018 5.31254 25.0929 9.64846C26.0596 10.6253 26.8066 11.738 27.338 12.9258C27.338 12.9269 27.3402 12.9269 27.3413 12.9258L32.0054 8.2131C32.0065 8.21199 32.0065 8.21199 32.0054 8.21089C29.0134 3.40205 23.7752 0.163372 17.777 0.00536123C7.83642 -0.255412 -0.32597 8.05951 0.00975561 18.1015C0.32361 27.4882 7.95344 34.9998 17.3188 34.9998C23.5073 34.9998 28.9368 31.7192 31.9999 26.7866C31.9999 26.7855 31.9999 26.7855 31.9999 26.7844L27.3358 22.0717C27.3347 22.0706 27.3337 22.0706 27.3326 22.0717C26.8022 23.2606 26.0542 24.3733 25.0886 25.3501ZM15.0573 27.3413C15.0573 27.4573 14.9643 27.5501 14.8506 27.5501H13.7865C13.6717 27.5501 13.5798 27.4562 13.5798 27.3413V26.2661C13.5798 26.1501 13.6728 26.0573 13.7865 26.0573H14.8506C14.9654 26.0573 15.0573 26.1512 15.0573 26.2661V27.3413ZM15.0573 24.5103C15.0573 24.6264 14.9643 24.7192 14.8506 24.7192H13.7865C13.6717 24.7192 13.5798 24.6253 13.5798 24.5103V23.4352C13.5798 23.3192 13.6728 23.2264 13.7865 23.2264H14.8506C14.9654 23.2264 15.0573 23.3203 15.0573 23.4352V24.5103ZM15.0573 21.6794C15.0573 21.7954 14.9643 21.8882 14.8506 21.8882H13.7865C13.6717 21.8882 13.5798 21.7943 13.5798 21.6794V20.6043C13.5798 20.4882 13.6728 20.3954 13.7865 20.3954H14.8506C14.9654 20.3954 15.0573 20.4893 15.0573 20.6043V21.6794ZM15.0573 18.9346C15.0573 19.0507 14.9643 19.1435 14.8506 19.1435H13.7865C13.6717 19.1435 13.5798 19.0496 13.5798 18.9346V17.8595C13.5798 17.7435 13.6728 17.6507 13.7865 17.6507H14.8506C14.9654 17.6507 15.0573 17.7446 15.0573 17.8595V18.9346ZM18.2384 31.1015H16.7643C16.7632 31.1015 16.7621 31.1004 16.7621 31.0993V29.5866C16.7621 29.1954 17.0486 28.8529 17.4347 28.8186C17.8721 28.7799 18.2395 29.128 18.2395 29.5623V31.0993C18.2406 31.1004 18.2395 31.1015 18.2384 31.1015ZM18.2406 27.3413C18.2406 27.4573 18.1477 27.5501 18.034 27.5501H16.9699C16.8551 27.5501 16.7632 27.4562 16.7632 27.3413V26.2661C16.7632 26.1501 16.8562 26.0573 16.9699 26.0573H18.034C18.1488 26.0573 18.2406 26.1512 18.2406 26.2661V27.3413ZM18.2406 24.5103C18.2406 24.6264 18.1477 24.7192 18.034 24.7192H16.9699C16.8551 24.7192 16.7632 24.6253 16.7632 24.5103V23.4352C16.7632 23.3192 16.8562 23.2264 16.9699 23.2264H18.034C18.1488 23.2264 18.2406 23.3203 18.2406 23.4352V24.5103ZM18.2406 21.6794C18.2406 21.7954 18.1477 21.8882 18.034 21.8882H16.9699C16.8551 21.8882 16.7632 21.7943 16.7632 21.6794V20.6043C16.7632 20.4882 16.8562 20.3954 16.9699 20.3954H18.034C18.1488 20.3954 18.2406 20.4893 18.2406 20.6043V21.6794ZM18.2406 18.9346C18.2406 19.0507 18.1477 19.1435 18.034 19.1435H16.9699C16.8551 19.1435 16.7632 19.0496 16.7632 18.9346V17.8595C16.7632 17.7435 16.8562 17.6507 16.9699 17.6507H18.034C18.1488 17.6507 18.2406 17.7446 18.2406 17.8595V18.9346ZM21.178 27.3413C21.178 27.4573 21.085 27.5501 20.9713 27.5501H19.9072C19.7924 27.5501 19.7005 27.4562 19.7005 27.3413V26.2661C19.7005 26.1501 19.7935 26.0573 19.9072 26.0573H20.9713C21.0861 26.0573 21.178 26.1512 21.178 26.2661V27.3413ZM21.178 24.5103C21.178 24.6264 21.085 24.7192 20.9713 24.7192H19.9072C19.7924 24.7192 19.7005 24.6253 19.7005 24.5103V23.4352C19.7005 23.3192 19.7935 23.2264 19.9072 23.2264H20.9713C21.0861 23.2264 21.178 23.3203 21.178 23.4352V24.5103ZM21.178 21.6794C21.178 21.7954 21.085 21.8882 20.9713 21.8882H19.9072C19.7924 21.8882 19.7005 21.7943 19.7005 21.6794V20.6043C19.7005 20.4882 19.7935 20.3954 19.9072 20.3954H20.9713C21.0861 20.3954 21.178 20.4893 21.178 20.6043V21.6794ZM21.178 18.9346C21.178 19.0507 21.085 19.1435 20.9713 19.1435H19.9072C19.7935 19.1435 19.7005 19.0496 19.7005 18.9346V17.8595C19.7005 17.7435 19.7935 17.6507 19.9072 17.6507H20.9713C21.0861 17.6507 21.178 17.7446 21.178 17.8595V18.9346Z" fill="#02152F"/>
</svg>
