<svg width="117" height="117" viewBox="0 0 117 117" fill="none" xmlns="http://www.w3.org/2000/svg">
<path d="M116.44 112.486L108.507 67.1117H111.187C113.342 67.1117 115.078 65.3893 115.078 63.2513V34.7437C115.078 32.6056 113.342 30.8832 111.187 30.8832H74.3659V3.86041C74.3659 1.72233 72.6296 0 70.4743 0H46.5258C44.3705 0 42.6342 1.72233 42.6342 3.86041V30.8832H5.81355C3.6582 30.8832 1.92194 32.6056 1.92194 34.7437V63.2513C1.92194 65.3893 3.6582 67.1117 5.81355 67.1117H8.49278L0.559871 112.486C0.514968 112.709 0.5 112.932 0.5 113.14C0.5 115.278 2.23626 117 4.39162 117H112.608C112.833 117 113.058 116.985 113.267 116.941C115.393 116.584 116.814 114.58 116.44 112.486ZM12.3994 41.2766H53.1117V10.3934H63.8884V41.2766H104.601V56.7183H12.3994V41.2766ZM82.4485 106.607V83.4442C82.4485 82.7909 81.9096 82.2563 81.251 82.2563H74.0665C73.4079 82.2563 72.8691 82.7909 72.8691 83.4442V106.607H44.131V83.4442C44.131 82.7909 43.5922 82.2563 42.9336 82.2563H35.7491C35.0905 82.2563 34.5516 82.7909 34.5516 83.4442V106.607H12.2198L18.9702 68.0025H98.0149L104.765 106.607H82.4485Z" fill="black"/>
</svg>
