<svg width="722" height="684" viewBox="0 0 722 684" fill="none" xmlns="http://www.w3.org/2000/svg">
<g clip-path="url(#clip0_208_121)">
<path opacity="0.7" d="M277.903 144.019C268.247 144.019 260.445 151.815 260.445 161.464V181.569C260.445 181.599 260.475 181.629 260.505 181.629H468.079C468.109 181.629 468.139 181.599 468.139 181.569V161.464C468.139 151.815 460.337 144.019 450.682 144.019H383.124C383.095 144.019 383.065 143.989 383.065 143.959V17.4161C383.065 8.78275 376.817 1.10535 368.208 0.119534C359.479 -0.866281 351.857 4.60051 349.495 12.3377L285.107 36.9233C285.077 36.9531 285.077 37.0129 285.107 37.0129L348.718 60.1347C348.748 60.1347 348.748 60.1646 348.748 60.1945V143.989C348.748 144.019 348.718 144.048 348.688 144.048H277.903V144.019Z" fill="#02152F"/>
<path opacity="0.7" d="M508.673 237.253C520.51 237.223 529.986 227.126 528.94 215.057C528.014 204.422 518.627 196.506 507.986 196.506H219.044C208.373 196.506 199.016 204.422 198.09 215.057C197.043 227.126 206.519 237.223 218.357 237.253C218.387 237.253 218.417 237.282 218.417 237.312V486.634C218.536 487.47 218.656 488.366 218.656 489.293V693.386C264.332 708.054 312.997 716.03 363.545 716.03C414.512 716.03 463.565 707.934 509.57 693.028V505.245C509.301 505.394 509.032 505.573 508.763 505.723C508.733 505.753 508.703 505.723 508.703 505.693V237.282C508.643 237.282 508.643 237.253 508.673 237.253ZM301.697 508.979C301.697 512.116 299.156 514.625 296.047 514.625H266.962C263.823 514.625 261.312 512.086 261.312 508.979V479.912C261.312 476.776 263.853 474.266 266.962 474.266H296.047C299.186 474.266 301.697 476.806 301.697 479.912V508.979ZM301.697 432.414C301.697 435.551 299.156 438.06 296.047 438.06H266.962C263.823 438.06 261.312 435.521 261.312 432.414V403.347C261.312 400.211 263.853 397.701 266.962 397.701H296.047C299.186 397.701 301.697 400.241 301.697 403.347V432.414ZM301.697 355.879C301.697 359.016 299.156 361.525 296.047 361.525H266.962C263.823 361.525 261.312 358.986 261.312 355.879V326.812C261.312 323.676 263.853 321.166 266.962 321.166H296.047C299.186 321.166 301.697 323.706 301.697 326.812V355.879ZM301.697 281.674C301.697 284.811 299.156 287.32 296.047 287.32H266.962C263.823 287.32 261.312 284.781 261.312 281.674V252.607C261.312 249.471 263.853 246.961 266.962 246.961H296.047C299.186 246.961 301.697 249.501 301.697 252.607V281.674ZM388.684 610.578C388.684 610.607 388.655 610.637 388.625 610.637H348.359C348.33 610.637 348.3 610.607 348.3 610.578V569.681C348.3 559.106 356.131 549.845 366.684 548.919C378.641 547.874 388.684 557.284 388.684 569.024V610.578ZM388.684 508.979C388.684 512.116 386.144 514.625 383.035 514.625H353.949C350.811 514.625 348.3 512.086 348.3 508.979V479.912C348.3 476.776 350.84 474.266 353.949 474.266H383.035C386.173 474.266 388.684 476.806 388.684 479.912V508.979ZM388.684 432.414C388.684 435.551 386.144 438.06 383.035 438.06H353.949C350.811 438.06 348.3 435.521 348.3 432.414V403.347C348.3 400.211 350.84 397.701 353.949 397.701H383.035C386.173 397.701 388.684 400.241 388.684 403.347V432.414ZM388.684 355.879C388.684 359.016 386.144 361.525 383.035 361.525H353.949C350.811 361.525 348.3 358.986 348.3 355.879V326.812C348.3 323.676 350.84 321.166 353.949 321.166H383.035C386.173 321.166 388.684 323.706 388.684 326.812V355.879ZM388.684 281.674C388.684 284.811 386.144 287.32 383.035 287.32H353.949C350.811 287.32 348.3 284.781 348.3 281.674V252.607C348.3 249.501 350.84 246.961 353.949 246.961H383.035C386.173 246.961 388.684 249.501 388.684 252.607V281.674ZM468.976 508.979C468.976 512.116 466.435 514.625 463.326 514.625H434.241C431.102 514.625 428.591 512.086 428.591 508.979V479.912C428.591 476.776 431.132 474.266 434.241 474.266H463.326C466.465 474.266 468.976 476.806 468.976 479.912V508.979ZM468.976 432.414C468.976 435.551 466.435 438.06 463.326 438.06H434.241C431.102 438.06 428.591 435.521 428.591 432.414V403.347C428.591 400.211 431.132 397.701 434.241 397.701H463.326C466.465 397.701 468.976 400.241 468.976 403.347V432.414ZM468.976 355.879C468.976 359.016 466.435 361.525 463.326 361.525H434.241C431.102 361.525 428.591 358.986 428.591 355.879V326.812C428.591 323.676 431.132 321.166 434.241 321.166H463.326C466.465 321.166 468.976 323.706 468.976 326.812V355.879ZM468.976 281.674C468.976 284.811 466.435 287.32 463.326 287.32H434.241C431.132 287.32 428.591 284.781 428.591 281.674V252.607C428.591 249.471 431.132 246.961 434.241 246.961H463.326C466.465 246.961 468.976 249.501 468.976 252.607V281.674Z" fill="#02152F"/>
</g>
<g clip-path="url(#clip1_208_121)">
<path opacity="0.7" d="M571.038 383.693C565.233 383.693 560.543 388.386 560.543 394.194V406.296C560.543 406.314 560.561 406.332 560.579 406.332H685.374C685.392 406.332 685.41 406.314 685.41 406.296V394.194C685.41 388.386 680.719 383.693 674.914 383.693H634.298C634.28 383.693 634.262 383.675 634.262 383.657V307.484C634.262 302.287 630.506 297.665 625.331 297.072C620.083 296.478 615.5 299.769 614.08 304.427L575.369 319.226C575.351 319.244 575.351 319.28 575.369 319.28L613.613 333.198C613.631 333.198 613.631 333.216 613.631 333.234V383.675C613.631 383.693 613.613 383.711 613.595 383.711H571.038V383.693Z" fill="#02152F"/>
<path opacity="0.7" d="M709.779 439.815C716.896 439.797 722.593 433.719 721.964 426.455C721.407 420.053 715.764 415.288 709.366 415.288H535.652C529.236 415.288 523.611 420.053 523.054 426.455C522.425 433.719 528.122 439.797 535.239 439.815C535.257 439.815 535.275 439.833 535.275 439.851V589.932C535.347 590.435 535.418 590.975 535.418 591.532V714.387C562.879 723.217 592.137 728.018 622.527 728.018C653.169 728.018 682.66 723.145 710.318 714.172V601.135C710.157 601.225 709.995 601.333 709.833 601.423C709.815 601.44 709.797 601.423 709.797 601.405V439.833C709.761 439.833 709.761 439.815 709.779 439.815ZM585.344 603.383C585.344 605.271 583.816 606.781 581.947 606.781H564.461C562.574 606.781 561.064 605.253 561.064 603.383V585.886C561.064 583.998 562.592 582.487 564.461 582.487H581.947C583.834 582.487 585.344 584.016 585.344 585.886V603.383ZM585.344 557.294C585.344 559.182 583.816 560.693 581.947 560.693H564.461C562.574 560.693 561.064 559.164 561.064 557.294V539.797C561.064 537.909 562.592 536.398 564.461 536.398H581.947C583.834 536.398 585.344 537.927 585.344 539.797V557.294ZM585.344 511.223C585.344 513.111 583.816 514.622 581.947 514.622H564.461C562.574 514.622 561.064 513.093 561.064 511.223V493.726C561.064 491.838 562.592 490.328 564.461 490.328H581.947C583.834 490.328 585.344 491.856 585.344 493.726V511.223ZM585.344 466.555C585.344 468.443 583.816 469.954 581.947 469.954H564.461C562.574 469.954 561.064 468.425 561.064 466.555V449.058C561.064 447.17 562.592 445.66 564.461 445.66H581.947C583.834 445.66 585.344 447.188 585.344 449.058V466.555ZM637.641 664.54C637.641 664.558 637.623 664.576 637.605 664.576H613.397C613.379 664.576 613.361 664.558 613.361 664.54V639.923C613.361 633.557 618.07 627.982 624.414 627.425C631.603 626.796 637.641 632.46 637.641 639.527V664.54ZM637.641 603.383C637.641 605.271 636.114 606.781 634.244 606.781H616.758C614.871 606.781 613.361 605.253 613.361 603.383V585.886C613.361 583.998 614.889 582.487 616.758 582.487H634.244C636.131 582.487 637.641 584.016 637.641 585.886V603.383ZM637.641 557.294C637.641 559.182 636.114 560.693 634.244 560.693H616.758C614.871 560.693 613.361 559.164 613.361 557.294V539.797C613.361 537.909 614.889 536.398 616.758 536.398H634.244C636.131 536.398 637.641 537.927 637.641 539.797V557.294ZM637.641 511.223C637.641 513.111 636.114 514.622 634.244 514.622H616.758C614.871 514.622 613.361 513.093 613.361 511.223V493.726C613.361 491.838 614.889 490.328 616.758 490.328H634.244C636.131 490.328 637.641 491.856 637.641 493.726V511.223ZM637.641 466.555C637.641 468.443 636.114 469.954 634.244 469.954H616.758C614.871 469.954 613.361 468.425 613.361 466.555V449.058C613.361 447.188 614.889 445.66 616.758 445.66H634.244C636.131 445.66 637.641 447.188 637.641 449.058V466.555ZM685.913 603.383C685.913 605.271 684.385 606.781 682.516 606.781H665.03C663.143 606.781 661.633 605.253 661.633 603.383V585.886C661.633 583.998 663.161 582.487 665.03 582.487H682.516C684.403 582.487 685.913 584.016 685.913 585.886V603.383ZM685.913 557.294C685.913 559.182 684.385 560.693 682.516 560.693H665.03C663.143 560.693 661.633 559.164 661.633 557.294V539.797C661.633 537.909 663.161 536.398 665.03 536.398H682.516C684.403 536.398 685.913 537.927 685.913 539.797V557.294ZM685.913 511.223C685.913 513.111 684.385 514.622 682.516 514.622H665.03C663.143 514.622 661.633 513.093 661.633 511.223V493.726C661.633 491.838 663.161 490.328 665.03 490.328H682.516C684.403 490.328 685.913 491.856 685.913 493.726V511.223ZM685.913 466.555C685.913 468.443 684.385 469.954 682.516 469.954H665.03C663.161 469.954 661.633 468.425 661.633 466.555V449.058C661.633 447.17 663.161 445.66 665.03 445.66H682.516C684.403 445.66 685.913 447.188 685.913 449.058V466.555Z" fill="#02152F"/>
</g>
<g clip-path="url(#clip2_208_121)">
<path opacity="0.7" d="M48.0382 383.693C42.2333 383.693 37.5427 388.386 37.5427 394.194V406.296C37.5427 406.314 37.5607 406.332 37.5787 406.332H162.374C162.392 406.332 162.41 406.314 162.41 406.296V394.194C162.41 388.386 157.719 383.693 151.914 383.693H111.298C111.28 383.693 111.262 383.675 111.262 383.657V307.484C111.262 302.287 107.506 297.665 102.33 297.072C97.0828 296.478 92.5 299.769 91.0802 304.427L52.3693 319.226C52.3514 319.244 52.3514 319.28 52.3693 319.28L90.613 333.198C90.631 333.198 90.631 333.216 90.631 333.234V383.675C90.631 383.693 90.613 383.711 90.595 383.711H48.0382V383.693Z" fill="#02152F"/>
<path opacity="0.7" d="M186.779 439.815C193.896 439.797 199.593 433.719 198.964 426.455C198.407 420.053 192.764 415.288 186.366 415.288H12.652C6.23612 415.288 0.610997 420.053 0.0538762 426.455C-0.575131 433.719 5.12188 439.797 12.2387 439.815C12.2566 439.815 12.2746 439.833 12.2746 439.851V589.932C12.3465 590.435 12.4184 590.975 12.4184 591.532V714.387C39.879 723.217 69.1369 728.018 99.5269 728.018C130.169 728.018 159.66 723.145 187.318 714.172V601.135C187.157 601.225 186.995 601.333 186.833 601.423C186.815 601.44 186.797 601.423 186.797 601.405V439.833C186.761 439.833 186.761 439.815 186.779 439.815ZM62.3436 603.383C62.3436 605.271 60.816 606.781 58.9469 606.781H41.4605C39.5735 606.781 38.0639 605.253 38.0639 603.383V585.886C38.0639 583.998 39.5915 582.487 41.4605 582.487H58.9469C60.834 582.487 62.3436 584.016 62.3436 585.886V603.383ZM62.3436 557.294C62.3436 559.182 60.816 560.693 58.9469 560.693H41.4605C39.5735 560.693 38.0639 559.164 38.0639 557.294V539.797C38.0639 537.909 39.5915 536.398 41.4605 536.398H58.9469C60.834 536.398 62.3436 537.927 62.3436 539.797V557.294ZM62.3436 511.223C62.3436 513.111 60.816 514.622 58.9469 514.622H41.4605C39.5735 514.622 38.0639 513.093 38.0639 511.223V493.726C38.0639 491.838 39.5915 490.328 41.4605 490.328H58.9469C60.834 490.328 62.3436 491.856 62.3436 493.726V511.223ZM62.3436 466.555C62.3436 468.443 60.816 469.954 58.9469 469.954H41.4605C39.5735 469.954 38.0639 468.425 38.0639 466.555V449.058C38.0639 447.17 39.5915 445.66 41.4605 445.66H58.9469C60.834 445.66 62.3436 447.188 62.3436 449.058V466.555ZM114.641 664.54C114.641 664.558 114.623 664.576 114.605 664.576H90.3973C90.3793 664.576 90.3614 664.558 90.3614 664.54V639.923C90.3614 633.557 95.07 627.982 101.414 627.425C108.603 626.796 114.641 632.46 114.641 639.527V664.54ZM114.641 603.383C114.641 605.271 113.113 606.781 111.244 606.781H93.758C91.871 606.781 90.3614 605.253 90.3614 603.383V585.886C90.3614 583.998 91.889 582.487 93.758 582.487H111.244C113.131 582.487 114.641 584.016 114.641 585.886V603.383ZM114.641 557.294C114.641 559.182 113.113 560.693 111.244 560.693H93.758C91.871 560.693 90.3614 559.164 90.3614 557.294V539.797C90.3614 537.909 91.889 536.398 93.758 536.398H111.244C113.131 536.398 114.641 537.927 114.641 539.797V557.294ZM114.641 511.223C114.641 513.111 113.113 514.622 111.244 514.622H93.758C91.871 514.622 90.3614 513.093 90.3614 511.223V493.726C90.3614 491.838 91.889 490.328 93.758 490.328H111.244C113.131 490.328 114.641 491.856 114.641 493.726V511.223ZM114.641 466.555C114.641 468.443 113.113 469.954 111.244 469.954H93.758C91.871 469.954 90.3614 468.425 90.3614 466.555V449.058C90.3614 447.188 91.889 445.66 93.758 445.66H111.244C113.131 445.66 114.641 447.188 114.641 449.058V466.555ZM162.913 603.383C162.913 605.271 161.385 606.781 159.516 606.781H142.03C140.143 606.781 138.633 605.253 138.633 603.383V585.886C138.633 583.998 140.161 582.487 142.03 582.487H159.516C161.403 582.487 162.913 584.016 162.913 585.886V603.383ZM162.913 557.294C162.913 559.182 161.385 560.693 159.516 560.693H142.03C140.143 560.693 138.633 559.164 138.633 557.294V539.797C138.633 537.909 140.161 536.398 142.03 536.398H159.516C161.403 536.398 162.913 537.927 162.913 539.797V557.294ZM162.913 511.223C162.913 513.111 161.385 514.622 159.516 514.622H142.03C140.143 514.622 138.633 513.093 138.633 511.223V493.726C138.633 491.838 140.161 490.328 142.03 490.328H159.516C161.403 490.328 162.913 491.856 162.913 493.726V511.223ZM162.913 466.555C162.913 468.443 161.385 469.954 159.516 469.954H142.03C140.161 469.954 138.633 468.425 138.633 466.555V449.058C138.633 447.17 140.161 445.66 142.03 445.66H159.516C161.403 445.66 162.913 447.188 162.913 449.058V466.555Z" fill="#02152F"/>
</g>
<defs>
<clipPath id="clip0_208_121">
<rect width="331" height="716" fill="white" transform="translate(198)"/>
</clipPath>
<clipPath id="clip1_208_121">
<rect width="199" height="431" fill="white" transform="translate(523 297)"/>
</clipPath>
<clipPath id="clip2_208_121">
<rect width="199" height="431" fill="white" transform="translate(0 297)"/>
</clipPath>
</defs>
</svg>
