<svg width="32" height="32" viewBox="0 0 32 32" fill="none" xmlns="http://www.w3.org/2000/svg">
<path d="M22.6333 22.6322C20.8203 24.0142 18.6126 24.7798 16.3333 24.8171C8.90905 24.8171 4.66663 16.3322 4.66663 16.3322C5.9859 13.8736 7.81571 11.7256 10.0333 10.0322" stroke="#2C2A36" stroke-width="1.5" stroke-linecap="round" stroke-linejoin="round"/>
<path d="M14.1061 8.10186C14.8361 7.93098 15.5836 7.84555 16.3334 7.84732C23.7576 7.84732 28 16.3322 28 16.3322C27.3562 17.5366 26.5884 18.6705 25.7091 19.7155" stroke="#2C2A36" stroke-width="1.5" stroke-linecap="round" stroke-linejoin="round"/>
<path d="M18.5818 18.5807C17.7886 19.432 16.594 19.7824 15.4666 19.4945C14.3393 19.2066 13.459 18.3263 13.1711 17.1989C12.8831 16.0716 13.2336 14.8769 14.0848 14.0837" stroke="#2C2A36" stroke-width="1.5" stroke-linecap="round" stroke-linejoin="round"/>
</svg>
