<svg width="135" height="135" viewBox="0 0 135 135" fill="none" xmlns="http://www.w3.org/2000/svg">
<path d="M129.6 12.15H101.25V1.35C101.25 0.6075 100.643 0 99.9 0H90.45C89.7075 0 89.1 0.6075 89.1 1.35V12.15H45.9V1.35C45.9 0.6075 45.2925 0 44.55 0H35.1C34.3575 0 33.75 0.6075 33.75 1.35V12.15H5.4C2.41312 12.15 0 14.5631 0 17.55V129.6C0 132.587 2.41312 135 5.4 135H129.6C132.587 135 135 132.587 135 129.6V17.55C135 14.5631 132.587 12.15 129.6 12.15ZM122.85 122.85H12.15V24.3H33.75V32.4C33.75 33.1425 34.3575 33.75 35.1 33.75H44.55C45.2925 33.75 45.9 33.1425 45.9 32.4V24.3H89.1V32.4C89.1 33.1425 89.7075 33.75 90.45 33.75H99.9C100.643 33.75 101.25 33.1425 101.25 32.4V24.3H122.85V122.85Z" fill="black"/>
<path d="M42.8551 68.3125V58.1704H90.6392V68.3125H72.8267V116.352H60.6676V68.3125H42.8551Z" fill="black"/>
<path d="M43 51L90 51" stroke="black" stroke-width="8"/>
</svg>
