<svg width="18" height="29" viewBox="0 0 18 29" fill="none" xmlns="http://www.w3.org/2000/svg">
<path d="M0.465233 13.5358L17.5122 0.065336C17.5567 0.0298569 17.6103 0.00780818 17.6666 0.0017218C17.723 -0.00436458 17.7799 0.00575825 17.8309 0.0309279C17.8818 0.0560976 17.9247 0.0952934 17.9546 0.144014C17.9845 0.192734 18.0003 0.249002 18 0.306358V3.26365C18 3.45111 17.913 3.63092 17.7693 3.74569L4.15597 14.4998L17.7693 25.254C17.9168 25.3688 18 25.5486 18 25.736V28.6933C18 28.9496 17.7088 29.0912 17.5122 28.9343L0.465233 15.4639C0.320345 15.3496 0.203136 15.2033 0.12252 15.0363C0.0419025 14.8692 0 14.6857 0 14.4998C0 14.3139 0.0419025 14.1305 0.12252 13.9634C0.203136 13.7964 0.320345 13.6501 0.465233 13.5358Z" fill="#6E6E6E"/>
</svg>
