<svg width="85" height="84" viewBox="0 0 85 84" fill="none" xmlns="http://www.w3.org/2000/svg">
<path d="M76.875 13.125H8.625C7.17305 13.125 6 14.298 6 15.75V68.25C6 69.702 7.17305 70.875 8.625 70.875H76.875C78.327 70.875 79.5 69.702 79.5 68.25V15.75C79.5 14.298 78.327 13.125 76.875 13.125ZM73.5938 22.2141V64.9688H11.9062V22.2141L9.64219 20.4504L12.866 16.3078L16.377 19.0395H69.1312L72.6422 16.3078L75.866 20.4504L73.5938 22.2141ZM69.1312 19.0312L42.75 39.5391L16.3687 19.0312L12.8578 16.2996L9.63398 20.4422L11.898 22.2059L39.9199 43.9934C40.7258 44.6194 41.7172 44.9593 42.7377 44.9593C43.7582 44.9593 44.7496 44.6194 45.5555 43.9934L73.5938 22.2141L75.8578 20.4504L72.634 16.3078L69.1312 19.0312Z" fill="white"/>
</svg>
