<svg width="482" height="452" viewBox="0 0 482 452" fill="none" xmlns="http://www.w3.org/2000/svg">
<g clip-path="url(#clip0_201_119)">
<path opacity="0.7" d="M185.349 96.1464C178.902 96.1464 173.693 101.352 173.693 107.793V121.215C173.693 121.235 173.713 121.255 173.733 121.255H312.325C312.345 121.255 312.365 121.235 312.365 121.215V107.793C312.365 101.352 307.155 96.1464 300.709 96.1464H255.603C255.583 96.1464 255.563 96.1265 255.563 96.1065V11.6269C255.563 5.8633 251.392 0.737883 245.643 0.0797554C239.816 -0.578372 234.726 3.07124 233.149 8.23655L190.159 24.6498C190.139 24.6698 190.139 24.7097 190.159 24.7097L232.631 40.1458C232.651 40.1458 232.651 40.1657 232.651 40.1856V96.1265C232.651 96.1464 232.631 96.1664 232.611 96.1664H185.349V96.1464Z" fill="#02152F"/>
<path opacity="0.7" d="M339.428 158.389C347.332 158.369 353.659 151.629 352.96 143.572C352.341 136.472 346.074 131.187 338.969 131.187H146.051C138.926 131.187 132.679 136.472 132.06 143.572C131.361 151.629 137.688 158.369 145.592 158.389C145.612 158.389 145.632 158.409 145.632 158.429V324.876C145.711 325.434 145.791 326.032 145.791 326.651V462.903C176.288 472.695 208.78 478.02 242.53 478.02C276.559 478.02 309.311 472.615 340.027 462.664V337.3C339.847 337.4 339.668 337.52 339.488 337.619C339.468 337.639 339.448 337.619 339.448 337.6V158.409C339.408 158.409 339.408 158.389 339.428 158.389ZM201.236 339.793C201.236 341.887 199.539 343.563 197.464 343.563H178.044C175.949 343.563 174.272 341.867 174.272 339.793V320.388C174.272 318.294 175.968 316.619 178.044 316.619H197.464C199.559 316.619 201.236 318.314 201.236 320.388V339.793ZM201.236 288.679C201.236 290.773 199.539 292.448 197.464 292.448H178.044C175.949 292.448 174.272 290.753 174.272 288.679V269.274C174.272 267.18 175.968 265.505 178.044 265.505H197.464C199.559 265.505 201.236 267.2 201.236 269.274V288.679ZM201.236 237.584C201.236 239.678 199.539 241.353 197.464 241.353H178.044C175.949 241.353 174.272 239.658 174.272 237.584V218.179C174.272 216.085 175.968 214.41 178.044 214.41H197.464C199.559 214.41 201.236 216.105 201.236 218.179V237.584ZM201.236 188.045C201.236 190.139 199.539 191.814 197.464 191.814H178.044C175.949 191.814 174.272 190.119 174.272 188.045V168.64C174.272 166.546 175.968 164.871 178.044 164.871H197.464C199.559 164.871 201.236 166.566 201.236 168.64V188.045ZM259.315 407.62C259.315 407.64 259.295 407.66 259.275 407.66H232.391C232.371 407.66 232.351 407.64 232.351 407.62V380.318C232.351 373.258 237.58 367.076 244.626 366.457C252.609 365.759 259.315 372.042 259.315 379.879V407.62ZM259.315 339.793C259.315 341.887 257.619 343.563 255.543 343.563H236.123C234.028 343.563 232.351 341.867 232.351 339.793V320.388C232.351 318.294 234.048 316.619 236.123 316.619H255.543C257.638 316.619 259.315 318.314 259.315 320.388V339.793ZM259.315 288.679C259.315 290.773 257.619 292.448 255.543 292.448H236.123C234.028 292.448 232.351 290.753 232.351 288.679V269.274C232.351 267.18 234.048 265.505 236.123 265.505H255.543C257.638 265.505 259.315 267.2 259.315 269.274V288.679ZM259.315 237.584C259.315 239.678 257.619 241.353 255.543 241.353H236.123C234.028 241.353 232.351 239.658 232.351 237.584V218.179C232.351 216.085 234.048 214.41 236.123 214.41H255.543C257.638 214.41 259.315 216.105 259.315 218.179V237.584ZM259.315 188.045C259.315 190.139 257.619 191.814 255.543 191.814H236.123C234.028 191.814 232.351 190.119 232.351 188.045V168.64C232.351 166.566 234.048 164.871 236.123 164.871H255.543C257.638 164.871 259.315 166.566 259.315 168.64V188.045ZM312.923 339.793C312.923 341.887 311.227 343.563 309.151 343.563H289.732C287.636 343.563 285.96 341.867 285.96 339.793V320.388C285.96 318.294 287.656 316.619 289.732 316.619H309.151C311.247 316.619 312.923 318.314 312.923 320.388V339.793ZM312.923 288.679C312.923 290.773 311.227 292.448 309.151 292.448H289.732C287.636 292.448 285.96 290.753 285.96 288.679V269.274C285.96 267.18 287.656 265.505 289.732 265.505H309.151C311.247 265.505 312.923 267.2 312.923 269.274V288.679ZM312.923 237.584C312.923 239.678 311.227 241.353 309.151 241.353H289.732C287.636 241.353 285.96 239.658 285.96 237.584V218.179C285.96 216.085 287.656 214.41 289.732 214.41H309.151C311.247 214.41 312.923 216.105 312.923 218.179V237.584ZM312.923 188.045C312.923 190.139 311.227 191.814 309.151 191.814H289.732C287.656 191.814 285.96 190.119 285.96 188.045V168.64C285.96 166.546 287.656 164.871 289.732 164.871H309.151C311.247 164.871 312.923 166.566 312.923 168.64V188.045Z" fill="#02152F"/>
</g>
<g clip-path="url(#clip1_201_119)">
<path opacity="0.7" d="M381.106 255.929C377.226 255.929 374.091 259.065 374.091 262.947V271.033C374.091 271.045 374.103 271.057 374.115 271.057H457.521C457.533 271.057 457.545 271.045 457.545 271.033V262.947C457.545 259.065 454.41 255.929 450.531 255.929H423.385C423.373 255.929 423.361 255.917 423.361 255.905V205.005C423.361 201.533 420.851 198.445 417.392 198.048C413.884 197.652 410.822 199.85 409.873 202.963L384.001 212.852C383.989 212.864 383.989 212.888 384.001 212.888L409.56 222.188C409.572 222.188 409.572 222.2 409.572 222.212V255.917C409.572 255.929 409.56 255.941 409.548 255.941H381.106V255.929Z" fill="#02152F"/>
<path opacity="0.7" d="M473.832 293.431C478.589 293.419 482.396 289.358 481.976 284.503C481.604 280.226 477.832 277.041 473.556 277.041H357.456C353.168 277.041 349.408 280.226 349.036 284.503C348.616 289.358 352.423 293.419 357.18 293.431C357.192 293.431 357.204 293.443 357.204 293.455V393.741C357.252 394.077 357.3 394.438 357.3 394.81V476.904C375.653 482.804 395.207 486.012 415.518 486.012C435.997 486.012 455.707 482.756 474.193 476.76V401.227C474.085 401.287 473.977 401.359 473.868 401.419C473.856 401.431 473.844 401.419 473.844 401.407V293.443C473.82 293.443 473.82 293.431 473.832 293.431ZM390.667 402.729C390.667 403.991 389.646 405 388.397 405H376.71C375.449 405 374.44 403.979 374.44 402.729V391.037C374.44 389.776 375.461 388.766 376.71 388.766H388.397C389.658 388.766 390.667 389.788 390.667 391.037V402.729ZM390.667 371.932C390.667 373.194 389.646 374.203 388.397 374.203H376.71C375.449 374.203 374.44 373.182 374.44 371.932V360.24C374.44 358.979 375.461 357.969 376.71 357.969H388.397C389.658 357.969 390.667 358.991 390.667 360.24V371.932ZM390.667 341.147C390.667 342.409 389.646 343.418 388.397 343.418H376.71C375.449 343.418 374.44 342.397 374.44 341.147V329.455C374.44 328.194 375.461 327.184 376.71 327.184H388.397C389.658 327.184 390.667 328.206 390.667 329.455V341.147ZM390.667 311.299C390.667 312.561 389.646 313.57 388.397 313.57H376.71C375.449 313.57 374.44 312.549 374.44 311.299V299.607C374.44 298.346 375.461 297.336 376.71 297.336H388.397C389.658 297.336 390.667 298.358 390.667 299.607V311.299ZM425.619 443.595C425.619 443.607 425.607 443.62 425.595 443.62H409.416C409.404 443.62 409.392 443.607 409.392 443.595V427.146C409.392 422.892 412.539 419.167 416.779 418.794C421.584 418.374 425.619 422.159 425.619 426.881V443.595ZM425.619 402.729C425.619 403.991 424.598 405 423.349 405H411.662C410.401 405 409.392 403.979 409.392 402.729V391.037C409.392 389.776 410.413 388.766 411.662 388.766H423.349C424.611 388.766 425.619 389.788 425.619 391.037V402.729ZM425.619 371.932C425.619 373.194 424.598 374.203 423.349 374.203H411.662C410.401 374.203 409.392 373.182 409.392 371.932V360.24C409.392 358.979 410.413 357.969 411.662 357.969H423.349C424.611 357.969 425.619 358.991 425.619 360.24V371.932ZM425.619 341.147C425.619 342.409 424.598 343.418 423.349 343.418H411.662C410.401 343.418 409.392 342.397 409.392 341.147V329.455C409.392 328.194 410.413 327.184 411.662 327.184H423.349C424.611 327.184 425.619 328.206 425.619 329.455V341.147ZM425.619 311.299C425.619 312.561 424.598 313.57 423.349 313.57H411.662C410.401 313.57 409.392 312.549 409.392 311.299V299.607C409.392 298.358 410.413 297.336 411.662 297.336H423.349C424.611 297.336 425.619 298.358 425.619 299.607V311.299ZM457.882 402.729C457.882 403.991 456.861 405 455.611 405H443.925C442.663 405 441.654 403.979 441.654 402.729V391.037C441.654 389.776 442.675 388.766 443.925 388.766H455.611C456.873 388.766 457.882 389.788 457.882 391.037V402.729ZM457.882 371.932C457.882 373.194 456.861 374.203 455.611 374.203H443.925C442.663 374.203 441.654 373.182 441.654 371.932V360.24C441.654 358.979 442.675 357.969 443.925 357.969H455.611C456.873 357.969 457.882 358.991 457.882 360.24V371.932ZM457.882 341.147C457.882 342.409 456.861 343.418 455.611 343.418H443.925C442.663 343.418 441.654 342.397 441.654 341.147V329.455C441.654 328.194 442.675 327.184 443.925 327.184H455.611C456.873 327.184 457.882 328.206 457.882 329.455V341.147ZM457.882 311.299C457.882 312.561 456.861 313.57 455.611 313.57H443.925C442.675 313.57 441.654 312.549 441.654 311.299V299.607C441.654 298.346 442.675 297.336 443.925 297.336H455.611C456.873 297.336 457.882 298.358 457.882 299.607V311.299Z" fill="#02152F"/>
</g>
<g clip-path="url(#clip2_201_119)">
<path opacity="0.7" d="M32.1061 255.929C28.2265 255.929 25.0916 259.065 25.0916 262.947V271.033C25.0916 271.045 25.1036 271.057 25.1156 271.057H108.521C108.533 271.057 108.545 271.045 108.545 271.033V262.947C108.545 259.065 105.41 255.929 101.531 255.929H74.3855C74.3735 255.929 74.3615 255.917 74.3615 255.905V205.005C74.3615 201.533 71.8511 198.445 68.3919 198.048C64.8847 197.652 61.8218 199.85 60.8729 202.963L35.0008 212.852C34.9888 212.864 34.9888 212.888 35.0008 212.888L60.5606 222.188C60.5726 222.188 60.5726 222.2 60.5726 222.212V255.917C60.5726 255.929 60.5606 255.941 60.5486 255.941H32.1061V255.929Z" fill="#02152F"/>
<path opacity="0.7" d="M124.833 293.431C129.589 293.419 133.396 289.358 132.976 284.503C132.604 280.226 128.832 277.041 124.556 277.041H8.45601C4.16801 277.041 0.408507 280.226 0.0361598 284.503C-0.384232 289.358 3.42332 293.419 8.17975 293.431C8.19176 293.431 8.20378 293.443 8.20378 293.455V393.741C8.25182 394.077 8.29986 394.438 8.29986 394.81V476.904C26.653 482.804 46.2072 486.012 66.5181 486.012C86.9972 486.012 106.708 482.756 125.193 476.76V401.227C125.085 401.287 124.977 401.359 124.869 401.419C124.857 401.431 124.845 401.419 124.845 401.407V293.443C124.821 293.443 124.821 293.431 124.833 293.431ZM41.667 402.729C41.667 403.991 40.646 405 39.3969 405H27.71C26.4488 405 25.4398 403.979 25.4398 402.729V391.037C25.4398 389.776 26.4608 388.766 27.71 388.766H39.3969C40.658 388.766 41.667 389.788 41.667 391.037V402.729ZM41.667 371.932C41.667 373.194 40.646 374.203 39.3969 374.203H27.71C26.4488 374.203 25.4398 373.182 25.4398 371.932V360.24C25.4398 358.979 26.4608 357.969 27.71 357.969H39.3969C40.658 357.969 41.667 358.991 41.667 360.24V371.932ZM41.667 341.147C41.667 342.409 40.646 343.418 39.3969 343.418H27.71C26.4488 343.418 25.4398 342.397 25.4398 341.147V329.455C25.4398 328.194 26.4608 327.184 27.71 327.184H39.3969C40.658 327.184 41.667 328.206 41.667 329.455V341.147ZM41.667 311.299C41.667 312.561 40.646 313.57 39.3969 313.57H27.71C26.4488 313.57 25.4398 312.549 25.4398 311.299V299.607C25.4398 298.346 26.4608 297.336 27.71 297.336H39.3969C40.658 297.336 41.667 298.358 41.667 299.607V311.299ZM76.6196 443.595C76.6196 443.607 76.6076 443.62 76.5955 443.62H60.4165C60.4044 443.62 60.3924 443.607 60.3924 443.595V427.146C60.3924 422.892 63.5394 419.167 67.7793 418.794C72.5838 418.374 76.6196 422.159 76.6196 426.881V443.595ZM76.6196 402.729C76.6196 403.991 75.5986 405 74.3494 405H62.6625C61.4014 405 60.3924 403.979 60.3924 402.729V391.037C60.3924 389.776 61.4134 388.766 62.6625 388.766H74.3494C75.6106 388.766 76.6196 389.788 76.6196 391.037V402.729ZM76.6196 371.932C76.6196 373.194 75.5986 374.203 74.3494 374.203H62.6625C61.4014 374.203 60.3924 373.182 60.3924 371.932V360.24C60.3924 358.979 61.4134 357.969 62.6625 357.969H74.3494C75.6106 357.969 76.6196 358.991 76.6196 360.24V371.932ZM76.6196 341.147C76.6196 342.409 75.5986 343.418 74.3494 343.418H62.6625C61.4014 343.418 60.3924 342.397 60.3924 341.147V329.455C60.3924 328.194 61.4134 327.184 62.6625 327.184H74.3494C75.6106 327.184 76.6196 328.206 76.6196 329.455V341.147ZM76.6196 311.299C76.6196 312.561 75.5986 313.57 74.3494 313.57H62.6625C61.4014 313.57 60.3924 312.549 60.3924 311.299V299.607C60.3924 298.358 61.4134 297.336 62.6625 297.336H74.3494C75.6106 297.336 76.6196 298.358 76.6196 299.607V311.299ZM108.882 402.729C108.882 403.991 107.861 405 106.612 405H94.9246C93.6635 405 92.6545 403.979 92.6545 402.729V391.037C92.6545 389.776 93.6755 388.766 94.9246 388.766H106.612C107.873 388.766 108.882 389.788 108.882 391.037V402.729ZM108.882 371.932C108.882 373.194 107.861 374.203 106.612 374.203H94.9246C93.6635 374.203 92.6545 373.182 92.6545 371.932V360.24C92.6545 358.979 93.6755 357.969 94.9246 357.969H106.612C107.873 357.969 108.882 358.991 108.882 360.24V371.932ZM108.882 341.147C108.882 342.409 107.861 343.418 106.612 343.418H94.9246C93.6635 343.418 92.6545 342.397 92.6545 341.147V329.455C92.6545 328.194 93.6755 327.184 94.9246 327.184H106.612C107.873 327.184 108.882 328.206 108.882 329.455V341.147ZM108.882 311.299C108.882 312.561 107.861 313.57 106.612 313.57H94.9246C93.6755 313.57 92.6545 312.549 92.6545 311.299V299.607C92.6545 298.346 93.6755 297.336 94.9246 297.336H106.612C107.873 297.336 108.882 298.358 108.882 299.607V311.299Z" fill="#02152F"/>
</g>
<defs>
<clipPath id="clip0_201_119">
<rect width="221" height="478" fill="white" transform="translate(132)"/>
</clipPath>
<clipPath id="clip1_201_119">
<rect width="133" height="288" fill="white" transform="translate(349 198)"/>
</clipPath>
<clipPath id="clip2_201_119">
<rect width="133" height="288" fill="white" transform="translate(0 198)"/>
</clipPath>
</defs>
</svg>
